<svg xmlns="http://www.w3.org/2000/svg" xmlns:xlink="http://www.w3.org/1999/xlink" width="137.784" height="77.326" viewBox="0 0 137.784 77.326">
  <defs>
    <clipPath id="clip-path">
      <path id="Path_20" data-name="Path 20" d="M736.986,622.19l22.75-25.854h96.308v71.241H736.986Z" fill="#fff" stroke="#231f20" stroke-width="2.999"/>
    </clipPath>
    <clipPath id="clip-path-2">
      <path id="Path_23" data-name="Path 23" d="M864.921,591.75l2.227,4.586,2.227,4.586h-8.91l2.227-4.586Z" fill="none"/>
    </clipPath>
  </defs>
  <g id="Inteligentny_obiekt_wektorowy" data-name="Inteligentny obiekt wektorowy" transform="translate(1.499)">
    <g id="Group_5" data-name="Group 5" transform="translate(-736.986 -591.75)">
      <path id="Path_17" data-name="Path 17" d="M736.986,622.19l22.75-25.854h96.308v71.241H736.986Z" fill="none" stroke="#fdd304" stroke-width="2.999"/>
      <g id="Group_2" data-name="Group 2">
        <path id="Path_18" data-name="Path 18" d="M736.986,622.19l22.75-25.854h96.308v71.241H736.986Z" fill="#fff"/>
        <g id="Group_1" data-name="Group 1" clip-path="url(#clip-path)">
          <path id="Path_19" data-name="Path 19" d="M759.818,594.161V622H734.871L745.3,591.752l13.068-3.16,1.452-.506v5.442" fill="#fff" stroke="#231f20" stroke-width="2.999"/>
          <line id="Line_1" data-name="Line 1" y2="33.176" transform="translate(741.295 626.893)" fill="#fff" stroke="#231f20" stroke-width="2.987"/>
          <line id="Line_2" data-name="Line 2" y2="45.843" transform="translate(851.248 600.261)" fill="#fff" stroke="#231f20" stroke-width="2.987"/>
          <line id="Line_3" data-name="Line 3" y2="33.176" transform="translate(755.067 579.748)" fill="#fff" stroke="#231f20" stroke-width="2.987"/>
          <line id="Line_4" data-name="Line 4" x1="73.918" transform="translate(753.967 636.322)" fill="#fff" stroke="#231f20" stroke-width="3.01"/>
          <line id="Line_5" data-name="Line 5" x1="73.918" transform="translate(753.967 641.814)" fill="#fff" stroke="#231f20" stroke-width="3.01"/>
          <line id="Line_6" data-name="Line 6" x1="73.918" transform="translate(753.967 647.751)" fill="#fff" stroke="#231f20" stroke-width="3.01"/>
          <line id="Line_7" data-name="Line 7" x1="33.615" transform="translate(753.791 653.687)" fill="#fff" stroke="#231f20" stroke-width="3.01"/>
          <line id="Line_8" data-name="Line 8" x1="13.904" transform="translate(798.317 653.512)" fill="#fff" stroke="#231f20" stroke-width="3.01"/>
          <line id="Line_9" data-name="Line 9" y1="13.794" transform="translate(851.203 648.711)" fill="#fff" stroke="#231f20" stroke-width="2.987"/>
          <rect id="Rectangle_2" data-name="Rectangle 2" width="49.103" height="23.616" rx="8.677" transform="translate(769.586 601.836)" fill="#fff" stroke="#231f20" stroke-width="2.999"/>
          <rect id="Rectangle_3" data-name="Rectangle 3" width="16.368" height="24.882" rx="5.324" transform="translate(823.044 601.182)" fill="#fff" stroke="#231f20" stroke-width="2.999"/>
        </g>
        <path id="Path_21" data-name="Path 21" d="M736.986,622.19l22.75-25.854h96.308v71.241H736.986Z" fill="none" stroke="#231f20" stroke-width="2.999"/>
      </g>
      <rect id="Rectangle_4" data-name="Rectangle 4" width="3.696" height="2.488" transform="translate(867.462 636.635)" fill="#231f20"/>
      <rect id="Rectangle_5" data-name="Rectangle 5" width="3.696" height="2.488" transform="translate(867.528 658.898)" fill="#231f20"/>
      <rect id="Rectangle_6" data-name="Rectangle 6" width="8.91" height="68.059" transform="translate(860.467 600.922)" fill="#f39323"/>
      <path id="Path_22" data-name="Path 22" d="M864.921,591.75l2.227,4.586,2.227,4.586h-8.91l2.227-4.586Z" fill="#f39323"/>
      <rect id="Rectangle_7" data-name="Rectangle 7" width="2.112" height="30.993" transform="translate(871.158 632.401)" fill="#231f20"/>
      <g id="Group_4" data-name="Group 4">
        <g id="Group_3" data-name="Group 3" clip-path="url(#clip-path-2)">
          <rect id="Rectangle_8" data-name="Rectangle 8" width="9.891" height="13.832" transform="translate(860.467 587.09)" fill="#231f20"/>
        </g>
      </g>
    </g>
  </g>
</svg>
